<?xml version="1.0" encoding="UTF-8" standalone="no"?>
<!-- Created with Inkscape (http://www.inkscape.org/) -->

<svg
        width="1324.9115"
        height="300.30405"
        viewBox="0 0 350.54949 79.455451"
        version="1.1"
        id="svg1"
        xml:space="preserve"
        xmlns="http://www.w3.org/2000/svg"
><defs
     id="defs1"><rect
       x="703.70825"
       y="368.92169"
       width="1021.4273"
       height="256.01328"
       id="rect5" /></defs>
    <g
            id="g2"><g
       id="g1"
       transform="translate(-210.27,-111.8761)"><g
         transform="matrix(0.03527778,0,0,-0.03527778,207.44433,196.48809)"
         fill="#000000"
         stroke="none"
         id="g25"><path
           d="m 1188,2390 c -26,-5 -51,-11 -56,-14 -5,-3 -43,-6 -85,-7 -42,-1 -74,-6 -71,-10 3,-5 -2,-6 -10,-3 -26,10 -66,-104 -64,-184 2,-45 6,-36 29,55 14,56 27,85 47,103 30,28 40,29 130,7 57,-13 85,-9 45,8 -66,27 202,34 324,9 43,-9 88,-17 100,-18 11,0 19,-5 15,-10 -3,-5 5,-7 16,-4 12,4 20,3 17,-1 -2,-5 14,-14 35,-21 27,-9 40,-19 40,-31 0,-15 8,-17 68,-12 38,3 79,0 96,-6 28,-11 29,-12 23,-74 -3,-34 -9,-73 -13,-86 -5,-18 -4,-23 7,-19 33,11 52,146 25,174 -22,22 -63,34 -114,34 -27,0 -57,7 -70,16 -40,28 -174,71 -271,88 -100,17 -185,19 -263,6 z"
           id="path1" /><path
            d="m 857,2182 c -17,-19 -48,-87 -45,-99 0,-5 -2,-16 -7,-26 -11,-26 2,-156 19,-198 18,-41 51,-91 60,-90 3,1 14,-7 24,-16 36,-34 65,-55 77,-57 7,-1 19,-7 26,-13 20,-16 132,-52 214,-70 110,-23 300,-26 414,-7 101,17 168,42 164,62 -2,6 3,9 11,6 20,-8 81,73 101,135 21,64 17,162 -9,207 -17,29 -17,28 -11,-44 6,-75 -7,-167 -28,-196 -10,-13 -12,-3 -12,56 0,40 -4,82 -9,93 -5,11 -10,25 -10,30 -2,21 -57,95 -90,121 -43,35 -120,65 -143,57 -10,-3 -31,-16 -48,-28 -16,-11 -47,-31 -67,-44 l -38,-23 -70,63 -70,62 -72,-5 c -77,-5 -136,-28 -193,-76 -30,-25 -85,-98 -85,-114 0,-15 18,-8 22,10 8,31 12,36 54,77 36,36 72,56 139,80 11,4 45,10 75,12 l 55,4 70,-65 c 39,-36 75,-65 80,-65 6,-1 39,22 74,49 72,57 95,60 167,22 89,-46 144,-144 144,-256 0,-117 -61,-184 -188,-206 -80,-14 -360,-8 -442,10 -30,7 -63,12 -72,13 -10,1 -18,4 -18,8 0,3 -18,14 -39,24 -79,35 -127,122 -118,212 6,60 -8,73 -19,17 -8,-44 10,-131 33,-156 34,-38 5,-25 -51,23 -32,27 -54,49 -51,49 4,0 3,6 -3,13 -17,20 -42,118 -42,161 0,45 20,129 39,165 16,29 9,36 -12,13 z"
            id="path2"/><path
            d="m 1138,1888 c 6,-6 37,-13 69,-14 l 58,-3 -60,14 c -74,18 -82,18 -67,3 z"
            id="path3"/><path
            d="m 1595,1840 c 3,-5 28,-10 56,-10 27,0 49,5 49,10 0,6 -25,10 -56,10 -34,0 -53,-4 -49,-10 z"
            id="path4"/><path
            d="m 710,1815 c -125,-36 -262,-117 -363,-217 -50,-49 -76,-81 -71,-89 4,-7 3,-9 -3,-6 -20,12 -95,-122 -128,-228 -18,-58 -25,-202 -13,-280 3,-16 6,-37 6,-46 1,-9 11,-19 22,-22 11,-3 20,-12 20,-21 0,-9 5,-16 10,-16 7,0 7,6 1,19 -9,16 -8,18 10,14 13,-4 18,-11 14,-21 -5,-13 -3,-13 12,-1 9,8 14,9 11,4 -4,-6 2,-22 12,-35 18,-24 20,-24 36,-8 16,16 18,16 31,0 12,-16 13,-16 7,1 -3,9 -1,17 5,17 6,0 11,-7 11,-16 0,-10 5,-12 12,-7 7,4 22,7 32,8 11,0 26,12 35,27 9,15 28,36 42,47 34,26 74,110 89,186 13,69 50,176 80,236 28,53 20,60 -13,12 C 577,1315 544,1236 510,1115 474,988 449,945 401,924 361,907 292,906 253,922 c -15,6 -31,11 -35,10 -5,-1 -8,5 -8,14 0,8 -4,13 -8,10 -12,-7 -41,81 -43,129 -3,58 10,138 32,197 10,29 17,54 14,56 -2,2 3,11 11,19 8,9 12,23 9,31 -3,9 -3,13 1,9 4,-4 21,15 38,42 17,26 41,63 53,81 12,19 19,38 16,43 -4,6 -1,7 6,2 8,-5 31,10 64,42 29,27 68,61 87,75 35,25 152,83 225,111 22,8 51,19 65,25 l 25,11 -25,-1 c -14,0 -45,-6 -70,-13 z M 165,942 c -8,-9 -25,20 -18,31 3,5 10,2 15,-7 6,-10 7,-20 3,-24 z m 113,-61 c 3,-8 -1,-12 -9,-9 -7,2 -15,10 -17,17 -3,8 1,12 9,9 7,-2 15,-10 17,-17 z m 118,-8 c -10,-10 -19,5 -10,18 6,11 8,11 12,0 2,-7 1,-15 -2,-18 z"
            id="path5"/><path
            d="m 1290,1805 c -11,-13 -6,-18 31,-34 24,-11 61,-23 82,-26 63,-12 172,29 136,51 -7,4 -9,3 -6,-3 4,-6 0,-13 -8,-17 -8,-3 -15,0 -15,6 0,7 -6,4 -13,-7 -20,-27 -134,-16 -159,15 -10,12 -18,17 -18,11 0,-6 -5,-11 -11,-11 -6,0 -9,7 -5,15 7,19 2,19 -14,0 z"
            id="path6"/><path
            d="m 1900,1713 c 0,-5 14,-17 31,-27 59,-35 227,-222 263,-294 10,-19 21,-30 28,-26 6,4 8,3 5,-3 -7,-12 13,-84 22,-78 4,2 7,-4 8,-13 0,-9 6,-43 13,-76 7,-35 8,-74 3,-100 -4,-22 -7,-46 -6,-53 0,-7 -4,-11 -11,-10 -6,1 -10,-6 -10,-15 1,-10 -2,-16 -6,-13 -4,2 -15,-4 -25,-15 -36,-40 -52,-26 -59,48 -12,119 -17,146 -28,131 -7,-10 -7,-7 -3,9 10,35 -58,227 -111,313 -41,67 -142,175 -153,164 -2,-3 14,-24 37,-49 22,-24 48,-58 57,-76 12,-24 19,-29 25,-20 5,9 8,5 8,-11 0,-13 18,-69 42,-124 70,-168 92,-267 96,-440 3,-110 8,-150 17,-150 8,0 13,22 15,68 3,62 4,66 22,57 15,-8 20,-6 25,9 7,25 45,67 56,63 5,-1 9,7 9,18 0,13 7,20 19,20 17,0 19,8 20,73 0,39 -5,95 -10,122 -12,58 -99,241 -132,277 -12,13 -44,50 -70,81 -49,58 -127,117 -153,117 -9,0 -12,5 -8,13 4,6 4,9 -1,5 -4,-4 -14,-3 -22,3 -7,6 -13,7 -13,2 z m 396,-680 c -10,-10 -19,5 -10,18 6,11 8,11 12,0 2,-7 1,-15 -2,-18 z m -99,-109 c -9,-9 -28,6 -21,18 4,6 10,6 17,-1 6,-6 8,-13 4,-17 z"
            id="path7"/><path
            d="m 919,1631 c -24,-27 -50,-56 -56,-64 -15,-18 -103,-167 -103,-173 0,-2 -9,-23 -19,-47 -11,-23 -24,-58 -30,-77 -15,-49 -41,-204 -35,-210 8,-8 24,24 23,45 -1,11 0,27 3,35 12,33 32,136 30,153 -1,10 3,15 8,12 6,-3 10,0 10,7 0,7 14,40 30,72 17,32 30,65 30,72 0,8 3,14 8,14 4,0 16,17 27,37 11,20 44,68 72,105 29,37 51,68 49,68 -2,0 -23,-22 -47,-49 z"
            id="path8"/><path
            d="m 586,1058 c -10,-18 -28,-49 -39,-68 -16,-27 -17,-32 -5,-22 10,8 29,34 43,58 23,40 44,57 45,37 1,-5 7,-30 14,-58 12,-43 11,-54 -1,-78 -8,-16 -13,-31 -10,-33 5,-5 57,71 57,83 1,5 11,21 24,37 l 23,28 11,-32 c 7,-18 14,-62 18,-98 3,-37 13,-82 21,-100 16,-37 20,-103 8,-141 -7,-23 -9,-23 -83,-17 -125,12 -275,73 -349,142 -20,19 -39,31 -44,28 -11,-6 -12,-98 -1,-108 4,-4 7,-13 7,-19 1,-7 7,-11 14,-9 8,2 11,-3 8,-11 -7,-19 62,-69 132,-97 28,-11 83,-23 122,-26 66,-7 70,-8 64,-28 -23,-72 -26,-126 -12,-175 l 15,-51 h -28 c -20,0 -29,-6 -33,-21 -5,-17 -9,-19 -26,-10 -27,15 -41,14 -41,-4 0,-17 -25,-20 -35,-5 -4,6 -16,3 -33,-8 -14,-9 -23,-11 -19,-5 5,7 4,13 -2,13 -6,0 -7,8 -2,22 10,28 2,68 -15,75 -8,3 -14,9 -14,15 0,5 5,6 10,3 6,-4 9,-1 8,6 -2,9 14,14 52,16 76,4 120,12 120,23 0,7 -27,6 -117,-5 -18,-2 -33,0 -33,6 0,5 -7,9 -15,9 -14,0 -17,11 -18,68 -1,12 -7,22 -15,22 -10,0 -12,-7 -9,-23 4,-12 2,-28 -3,-36 -6,-11 -14,-8 -39,17 -17,17 -31,38 -31,47 0,24 29,75 42,75 6,0 8,3 5,6 -4,4 -14,1 -23,-7 -16,-13 -17,-11 -12,14 5,26 4,27 -9,14 -12,-11 -12,-19 -4,-35 8,-15 8,-21 -1,-24 -18,-6 -11,-68 10,-91 9,-11 36,-28 59,-39 39,-18 42,-22 31,-41 -7,-15 -13,-18 -16,-9 -3,10 -7,10 -18,1 -11,-9 -14,-8 -14,5 0,9 -4,16 -9,16 -5,0 -17,3 -25,6 -12,5 -15,2 -10,-10 3,-9 10,-13 16,-10 5,3 15,-2 23,-12 7,-11 17,-16 21,-12 11,12 44,-38 44,-69 0,-46 -25,-73 -69,-73 -57,0 -76,19 -76,78 0,35 6,56 19,71 11,12 16,21 12,21 -10,0 -36,-27 -36,-37 0,-4 -4,-14 -9,-22 -7,-11 -12,-10 -29,7 -15,15 -17,23 -9,32 9,8 8,14 -5,24 -14,10 -15,15 -5,26 10,10 7,10 -12,0 -23,-12 -24,-13 -7,-26 25,-18 14,-41 -25,-49 -29,-7 -37,-3 -62,25 -24,27 -28,39 -25,74 3,22 8,50 13,61 6,16 4,15 -10,-4 C 83,482 70,393 90,405 c 10,6 12,4 7,-8 -7,-18 19,-51 33,-42 5,3 10,1 12,-5 5,-15 46,-20 74,-10 18,7 24,6 24,-5 0,-8 9,-19 20,-25 11,-6 20,-21 20,-34 0,-52 74,-82 134,-55 20,9 29,9 41,-1 13,-11 19,-10 34,4 13,11 21,14 26,7 11,-18 25,-12 35,14 9,25 11,25 34,9 27,-17 46,-12 46,12 0,16 45,20 55,4 4,-6 10,-8 15,-5 4,3 7,-2 6,-11 -1,-17 88,-86 108,-83 6,1 25,-4 41,-11 49,-20 220,-18 287,4 32,10 55,23 52,27 -3,5 1,9 9,9 21,0 78,77 93,125 20,69 3,162 -43,223 -14,18 -30,31 -37,29 -8,-3 -11,4 -8,25 4,26 2,29 -19,27 -13,-2 -34,3 -47,9 -12,7 -28,10 -34,6 -7,-4 -8,-3 -4,4 4,7 -3,14 -19,18 -14,3 -30,15 -36,26 -8,15 -13,17 -25,7 -20,-16 -134,-15 -145,2 -7,11 -14,8 -31,-12 l -23,-26 v 66 c 0,47 -5,73 -17,91 -12,15 -18,43 -18,75 0,69 -36,175 -59,175 -3,0 -18,-11 -33,-25 l -26,-24 -21,34 c -25,44 -42,44 -65,3 z M 368,775 c 12,-14 19,-25 16,-25 -3,0 1,-9 9,-20 21,-30 89,-81 102,-76 7,2 18,0 26,-4 8,-6 16,-4 21,3 6,9 8,9 8,0 0,-9 8,-9 29,-2 20,7 41,7 68,0 21,-6 53,-11 71,-11 17,0 32,-5 32,-11 0,-5 4,-7 10,-4 6,3 7,-1 3,-10 -4,-11 -8,-13 -13,-6 -4,7 -16,1 -32,-17 -25,-28 -25,-28 -105,-21 -44,5 -102,17 -129,28 -58,22 -123,62 -124,75 0,5 -7,17 -16,27 -18,20 -25,99 -8,99 6,0 20,-11 32,-25 z m 63,-47 c 12,-13 19,-17 15,-10 -4,7 19,-1 51,-17 32,-16 65,-31 73,-34 12,-4 -50,-3 -92,2 -12,2 -78,62 -78,72 0,14 7,11 31,-13 z m 450,-49 c 8,-17 8,-23 -2,-29 -24,-15 -38,-1 -25,26 13,29 13,29 27,3 z m 172,-19 c 4,-14 0,-20 -12,-20 -25,0 -32,10 -20,32 12,22 24,17 32,-12 z m -53,3 c 0,-3 -7,-2 -16,1 -26,10 -5,-13 27,-30 23,-12 34,-13 44,-4 8,7 24,9 36,5 12,-4 29,-9 38,-10 9,-2 18,-4 20,-4 2,-1 -2,-7 -8,-15 -13,-15 -4,-49 10,-40 5,3 9,0 9,-6 0,-7 15,-9 39,-6 33,3 39,1 34,-12 -4,-8 -2,-13 3,-9 5,3 10,-2 11,-11 1,-9 7,-37 13,-62 6,-25 10,-67 7,-93 -2,-26 0,-50 4,-53 5,-3 9,-11 9,-17 0,-8 -3,-8 -9,1 -6,10 -12,7 -24,-12 -23,-34 -66,-76 -78,-76 -6,0 -8,-3 -6,-7 3,-5 -9,-9 -25,-10 -17,-1 -35,-7 -42,-12 -18,-15 -225,-7 -266,11 -19,8 -40,13 -47,11 -6,-2 -15,1 -19,8 -5,8 -3,10 7,4 8,-4 -4,10 -26,31 -22,21 -42,38 -45,37 -7,-2 -8,8 -16,109 -4,51 -2,89 7,115 7,21 12,42 11,46 -1,5 2,6 7,3 5,-4 13,-1 18,7 4,7 25,27 46,44 32,25 45,30 76,26 26,-4 41,0 50,11 7,9 24,16 37,16 12,0 25,4 29,10 5,9 35,3 35,-7 z m 194,-76 c -8,-22 -28,-22 -45,1 -7,9 -10,14 -5,10 5,-4 15,0 24,8 18,18 36,5 26,-19 z"
            id="path9"/><path
            d="m 883,421 c -41,-25 -53,-50 -51,-99 2,-55 38,-87 109,-100 91,-17 155,25 152,99 -2,33 -9,48 -38,75 -20,19 -39,34 -43,35 -90,9 -99,8 -129,-10 z"
            id="path10"/><path
            d="m 490,942 c -8,-3 14,-11 50,-18 36,-6 67,-10 68,-9 2,2 -10,11 -27,19 -31,16 -64,19 -91,8 z"
            id="path11"/><path
            d="m 272,828 c -20,-20 8,-166 29,-152 5,3 7,9 4,14 -3,4 -7,39 -10,76 -6,76 -7,78 -23,62 z"
            id="path12"/><path
            d="m 420,796 c 0,-9 39,-13 51,-5 10,6 4,9 -18,9 -18,0 -33,-2 -33,-4 z"
            id="path13"/><path
            d="m 2048,778 c -3,-7 -19,-11 -41,-10 -22,2 -37,-2 -37,-8 0,-6 -4,-9 -9,-6 -5,4 -22,1 -38,-6 -15,-6 -31,-10 -36,-10 -18,4 -77,-64 -106,-123 -26,-53 -32,-75 -30,-122 3,-73 8,-95 22,-86 6,4 8,0 4,-10 -8,-21 42,-82 56,-68 12,12 1,31 -19,31 -8,0 -13,4 -9,9 3,5 1,12 -3,15 -5,3 -15,32 -22,65 -16,75 -2,141 42,201 26,35 33,39 40,26 11,-20 32,-20 53,0 12,13 13,19 4,30 -10,12 -9,18 1,27 10,9 11,9 6,0 -5,-9 4,-8 28,2 45,19 82,20 70,2 -5,-7 0,-2 12,10 21,25 34,22 34,-8 0,-12 -5,-16 -14,-13 -8,3 -17,0 -21,-6 -5,-8 2,-10 21,-8 20,2 29,9 29,20 0,20 5,22 45,13 19,-4 27,-11 23,-20 -7,-19 45,-44 56,-27 7,12 41,-20 45,-42 1,-6 5,-17 10,-24 15,-25 19,-121 6,-169 -8,-26 -29,-64 -48,-85 -19,-21 -30,-38 -26,-38 5,-1 -18,-12 -51,-27 -46,-20 -78,-26 -138,-27 -42,0 -77,2 -77,7 0,4 -8,7 -18,7 -10,0 -27,7 -38,15 -22,17 -34,19 -34,6 0,-18 86,-50 150,-56 89,-9 167,20 230,84 64,65 81,106 79,188 -2,75 -18,125 -53,163 -13,14 -28,34 -34,45 -10,19 -11,18 -9,-5 2,-24 -2,-30 -23,-30 -14,0 -12,28 2,32 7,3 -10,10 -38,17 -27,7 -57,17 -66,22 -23,12 -26,11 -30,-3 z M 1902,678 c -16,-16 -37,4 -28,28 6,16 8,16 23,1 13,-13 15,-19 5,-29 z"
            id="path14"/><path
            d="m 580,741 c 0,-10 29,-36 34,-30 1,2 -6,12 -16,22 -10,9 -18,13 -18,8 z"
            id="path15"/><path
            d="m 274,643 c -45,-30 -66,-52 -58,-64 3,-5 0,-9 -6,-9 -7,0 -9,-8 -5,-20 7,-23 -7,-27 -25,-5 -9,11 -16,12 -31,2 -10,-6 -19,-15 -19,-19 0,-5 9,-3 19,4 25,16 60,-14 42,-36 -9,-11 -9,-16 0,-22 7,-4 9,-3 6,3 -9,15 11,29 61,42 23,7 42,16 42,21 0,5 -15,3 -34,-5 -41,-17 -47,-13 -35,27 4,17 6,36 2,42 -3,6 -3,8 2,4 4,-4 24,5 44,20 20,14 38,27 40,29 2,2 2,5 0,8 -3,2 -23,-7 -45,-22 z"
            id="path16"/><path
            d="m 426,541 c -3,-4 20,-8 49,-9 30,-1 56,1 58,5 3,5 -19,9 -49,10 -30,0 -56,-2 -58,-6 z"
            id="path17"/><path
            d="m 1973,520 c -71,-43 -82,-117 -26,-166 35,-30 63,-38 113,-31 78,10 131,83 105,144 -30,70 -122,96 -192,53 z"
            id="path18"/><path
            d="m 210,491 c 0,-6 5,-13 10,-16 6,-3 10,1 10,9 0,9 -4,16 -10,16 -5,0 -10,-4 -10,-9 z"
            id="path19"/><path
            d="m 156,447 c 3,-10 9,-15 12,-12 3,3 0,11 -7,18 -10,9 -11,8 -5,-6 z"
            id="path20"/><path
            d="m 120,435 c 0,-8 2,-15 4,-15 2,0 6,7 10,15 3,8 1,15 -4,15 -6,0 -10,-7 -10,-15 z"
            id="path21"/><path
            d="m 160,411 c 0,-8 -7,-11 -17,-6 -15,5 -16,4 -5,-6 9,-10 15,-10 24,-1 6,6 9,15 5,19 -4,3 -7,1 -7,-6 z"
            id="path22"/><path
            d="m 1665,404 c -33,-7 -122,-17 -198,-20 -76,-4 -140,-12 -144,-17 -10,-16 252,-2 340,18 42,10 77,22 77,27 0,10 1,10 -75,-8 z"
            id="path23"/><path
            d="m 1716,318 c -70,-18 -256,-38 -357,-38 -41,0 -58,-4 -63,-15 -10,-27 289,-18 374,12 8,3 30,7 48,9 39,4 54,12 47,25 -3,5 0,6 8,3 15,-6 33,12 20,18 -5,2 -39,-4 -77,-14 z"
            id="path24"/><path
            d="m 343,323 c -17,-6 -16,-48 0,-62 20,-16 56,24 39,41 -9,9 -12,7 -12,-10 0,-22 -14,-30 -24,-13 -9,14 4,39 22,44 13,4 13,5 2,5 -8,0 -21,-2 -27,-5 z"
            id="path25"/></g></g>
        <text
                xml:space="preserve"
                transform="matrix(0.26458333,0,0,0.26458333,-89.780394,-74.957531)"
                id="text5"
                style="font-style:normal;font-variant:normal;font-weight:normal;font-stretch:normal;font-size:133.333px;font-family:'Ubuntu Mono';-inkscape-font-specification:'Ubuntu Mono, Normal';font-variant-ligatures:normal;font-variant-caps:normal;font-variant-numeric:normal;font-variant-east-asian:normal;text-align:start;writing-mode:lr-tb;direction:ltr;white-space:pre;shape-inside:url(#rect5);display:inline;fill:#000000;fill-opacity:1;stroke-width:37.7953;stroke-dasharray:none"><tspan
         x="703.70898"
         y="496.44162"
         id="tspan1">SnorlaxReader
</tspan></text></g></svg>
